<?xml version="1.0" encoding="UTF-8"?>
<svg
   xmlns:svg="http://www.w3.org/2000/svg"
   xmlns="http://www.w3.org/2000/svg"
   width="180"
   height="180"
   viewBox="-5 -5 95 95"
   id="svg10488">
  <path
     d="m 79.797436,18.8 c -0.5,-1.6 -1.7,-2.9 -3.2,-3.7 l -30.5,-14.6 c -0.8,-0.4 -1.7,-0.5 -2.5,-0.5 -0.8,0 -1.7,0 -2.5,0.2 l -30.5,14.7 c -1.5000002,0.7 -2.6000002,2 -3.0000002,3.7 L 0.09743584,51.5 c -0.3,1.7 0.1,3.4 1.09999996,4.8 L 22.297436,82.4 c 1.2,1.2 2.9,2 4.6,2.1 h 33.6 c 1.8,0.2 3.5,-0.6 4.6,-2.1 l 21.1,-26.1 c 1,-1.4 1.4,-3.1 1.2,-4.8 l -7.6,-32.7 z"
     id="path10349"
     style="fill:#326de6" />
  <path
     d="m 75.097436,50.2 0,0 c -0.1,0 -0.2,0 -0.2,-0.1 0,-0.1 -0.2,-0.1 -0.4,-0.1 -0.4,-0.1 -0.8,-0.1 -1.2,-0.1 -0.2,0 -0.4,0 -0.6,-0.1 h -0.1 c -1.1,-0.1 -2.3,-0.3 -3.4,-0.6 -0.3,-0.1 -0.6,-0.4 -0.7,-0.7 0.1,0 0,0 0,0 l 0,0 -0.8,-0.2 c 0.4,-2.9 0.2,-5.9 -0.4,-8.8 -0.7,-2.9 -1.9,-5.7 -3.5,-8.2 l 0.6,-0.6 0,0 v -0.1 c 0,-0.3 0.1,-0.7 0.3,-0.9 0.9,-0.8 1.8,-1.4 2.8,-2 l 0,0 c 0.2,-0.1 0.4,-0.2 0.6,-0.3 0.4,-0.2 0.7,-0.4 1.1,-0.6 0.1,-0.1 0.2,-0.1 0.3,-0.2 0.1,-0.1 0,-0.1 0,-0.2 l 0,0 c 0.9,-0.7 1.1,-1.9 0.4,-2.8 -0.3,-0.4 -0.9,-0.7 -1.4,-0.7 -0.5,0 -1,0.2 -1.4,0.5 l 0,0 -0.1,0.1 c -0.1,0.1 -0.2,0.2 -0.3,0.2 -0.3,0.3 -0.6,0.6 -0.8,0.9 -0.1,0.2 -0.3,0.3 -0.4,0.4 l 0,0 c -0.7,0.8 -1.6,1.6 -2.5,2.2 -0.2,0.1 -0.4,0.2 -0.6,0.2 -0.1,0 -0.3,0 -0.4,-0.1 h -0.1 l -0.8,0.5 c -0.8,-0.8 -1.7,-1.6 -2.5,-2.4 -3.7,-2.9 -8.3,-4.7 -13,-5.2 l -0.1,-0.8 0,0 0,0.1 c -0.3,-0.2 -0.4,-0.5 -0.5,-0.8 0,-1.1 0,-2.2 0.2,-3.4 v -0.1 c 0,-0.2 0.1,-0.4 0.1,-0.6 0.1,-0.4 0.1,-0.8 0.2,-1.2 v -0.6 l 0,0 c 0.1,-1 -0.7,-2 -1.7,-2.1 -0.6,-0.1 -1.2,0.2 -1.7,0.7 -0.4,0.4 -0.6,0.9 -0.6,1.4 l 0,0 v 0.5 c 0,0.4 0.1,0.8 0.2,1.2 0.1,0.2 0.1,0.4 0.1,0.6 v 0.1 c 0.2,1.1 0.2,2.2 0.2,3.4 -0.1,0.3 -0.2,0.6 -0.5,0.8 l 0,0.2 0,0 -0.1,0.8 c -1.1,0.1 -2.2,0.3 -3.4,0.5 -4.7,1 -9,3.5 -12.3,7 l -0.6,-0.4 h -0.1 c -0.1,0 -0.2,0.1 -0.4,0.1 -0.2,0 -0.4,-0.1 -0.6,-0.2 -0.9,-0.7 -1.8,-1.5 -2.5,-2.3 l 0,0 c -0.1,-0.2 -0.3,-0.3 -0.4,-0.4 -0.3,-0.3 -0.5,-0.6 -0.8,-0.9 -0.1,-0.1 -0.2,-0.1 -0.3,-0.2 -0.1,-0.1 -0.1,-0.1 -0.1,-0.1 l 0,0 c -0.4,-0.3 -0.9,-0.5 -1.4,-0.5 -0.6,0 -1.1,0.2 -1.4,0.7 -0.6,0.9 -0.4,2.1 0.4,2.8 l 0,0 c 0.1,0 0.1,0.1 0.1,0.1 0,0 0.2,0.2 0.3,0.2 0.3,0.2 0.7,0.4 1.1,0.6 0.2,0.1 0.4,0.2 0.6,0.3 l 0,0 c 1,0.6 2,1.2 2.8,2 0.2,0.2 0.4,0.6 0.3,0.9 v -0.1 l 0,0 0.6,0.6 c -0.1,0.2 -0.2,0.3 -0.3,0.5 -3.1,4.9 -4.4,10.7 -3.5,16.4 l -0.8,0.2 0,0 c 0,0.1 -0.1,0.1 -0.1,0.1 -0.1,0.3 -0.4,0.5 -0.7,0.7 -1.1,0.3 -2.2,0.5 -3.4,0.6 h 0 c -0.2,0 -0.4,0 -0.6,0.1 -0.4,0 -0.8,0.1 -1.2,0.1 -0.1,0 -0.2,0.1 -0.4,0.1 -0.1,0 -0.1,0 -0.2,0.1 l 0,0 c -1.1,0.2 -1.8,1.2 -1.6,2.3 0,0 0,0 0,0 0.2,0.9 1.1,1.5 2,1.4 0.2,0 0.3,0 0.5,-0.1 l 0,0 c 0.1,0 0.1,0 0.1,-0.1 0,-0.1 0.3,0 0.4,0 0.4,-0.1 0.8,-0.3 1.1,-0.4 0.2,-0.1 0.4,-0.2 0.6,-0.2 h 0.1 c 1.1,-0.4 2.1,-0.7 3.3,-0.9 h 0.1 c 0.3,0 0.6,0.1 0.8,0.3 0.1,0 0.1,0.1 0.1,0.1 l 0,0 0.9,-0.1 c 1.5,4.6 4.3,8.7 8.2,11.7 0.9,0.7 1.7,1.3 2.7,1.8 l -0.5,0.7 0,0 c 0,0.1 0.1,0.1 0.1,0.1 0.2,0.3 0.2,0.7 0.1,1 -0.4,1 -1,2 -1.6,2.9 v 0.1 c -0.1,0.2 -0.2,0.3 -0.4,0.5 -0.2,0.2 -0.4,0.6 -0.7,1 -0.1,0.1 -0.1,0.2 -0.2,0.3 0,0 0,0.1 -0.1,0.1 l 0,0 c -0.5,1 -0.1,2.2 0.8,2.7 0.2,0.1 0.5,0.2 0.7,0.2 0.8,0 1.5,-0.5 1.9,-1.2 l 0,0 c 0,0 0,-0.1 0.1,-0.1 0,-0.1 0.1,-0.2 0.2,-0.3 0.1,-0.4 0.3,-0.7 0.4,-1.1 l 0.2,-0.6 0,0 c 0.3,-1.1 0.8,-2.1 1.3,-3.1 0.2,-0.3 0.5,-0.5 0.8,-0.6 0.1,0 0.1,0 0.1,-0.1 l 0,0 0.4,-0.8 c 2.8,1.1 5.7,1.6 8.7,1.6 1.8,0 3.6,-0.2 5.4,-0.7 1.1,-0.2 2.2,-0.6 3.2,-0.9 l 0.4,0.7 0,0 c 0.1,0 0.1,0 0.1,0.1 0.3,0.1 0.6,0.3 0.8,0.6 0.5,1 1,2 1.3,3.1 v 0.1 l 0.2,0.6 c 0.1,0.4 0.2,0.8 0.4,1.1 0.1,0.1 0.1,0.2 0.2,0.3 0,0 0,0.1 0.1,0.1 l 0,0 c 0.4,0.7 1.1,1.2 1.9,1.2 0.3,0 0.5,-0.1 0.8,-0.2 0.4,-0.2 0.8,-0.6 0.9,-1.1 0.1,-0.5 0.1,-1 -0.1,-1.5 l 0,0 c 0,-0.1 -0.1,-0.1 -0.1,-0.1 0,-0.1 -0.1,-0.2 -0.2,-0.3 -0.2,-0.4 -0.4,-0.7 -0.7,-1 -0.1,-0.2 -0.2,-0.3 -0.4,-0.5 v -0.2 c -0.7,-0.9 -1.2,-1.9 -1.6,-2.9 -0.1,-0.3 -0.1,-0.7 0.1,-1 0,-0.1 0.1,-0.1 0.1,-0.1 l 0,0 -0.3,-0.8 c 5.1,-3.1 9,-7.9 10.8,-13.6 l 0.8,0.1 0,0 c 0.1,0 0.1,-0.1 0.1,-0.1 0.2,-0.2 0.5,-0.3 0.8,-0.3 h 0.1 c 1.1,0.2 2.2,0.5 3.2,0.9 h 0.1 c 0.2,0.1 0.4,0.2 0.6,0.2 0.4,0.2 0.7,0.4 1.1,0.5 0.1,0 0.2,0.1 0.4,0.1 0.1,0 0.1,0 0.2,0.1 l 0,0 c 0.2,0.1 0.3,0.1 0.5,0.1 0.9,0 1.7,-0.6 2,-1.4 -0.1,-1.1 -0.9,-1.9 -1.8,-2.1 z m -28.9,-3.1 -2.7,1.3 -2.7,-1.3 -0.7,-2.9 1.9,-2.4 h 3 l 1.9,2.4 -0.7,2.9 z m 16.3,-6.5 c 0.5,2.1 0.6,4.2 0.4,6.3 l -9.5,-2.7 0,0 c -0.9,-0.2 -1.4,-1.1 -1.2,-2 0.1,-0.3 0.2,-0.5 0.4,-0.7 l 7.5,-6.8 c 1.1,1.8 1.9,3.8 2.4,5.9 z m -5.4,-9.6 -8.2,5.8 c -0.7,0.4 -1.7,0.3 -2.2,-0.4 -0.2,-0.2 -0.3,-0.4 -0.3,-0.7 l -0.6,-10.1 c 4.4,0.5 8.3,2.4 11.3,5.4 l 0,0 z m -18.1,-5.1 2,-0.4 -0.5,10 0,0 c 0,0.9 -0.8,1.6 -1.7,1.6 -0.3,0 -0.5,-0.1 -0.8,-0.2 l -8.3,-5.9 c 2.6,-2.5 5.8,-4.3 9.3,-5.1 z m -12.2,8.8 7.4,6.6 0,0 c 0.7,0.6 0.8,1.6 0.2,2.3 -0.2,0.3 -0.4,0.4 -0.8,0.5 l -9.7,2.8 c -0.3,-4.2 0.7,-8.5 2.9,-12.2 z m -1.7,16.9 9.9,-1.7 c 0.8,0 1.6,0.5 1.7,1.3 0.1,0.3 0.1,0.7 -0.1,1 l 0,0 -3.8,9.2 c -3.5,-2.3 -6.3,-5.8 -7.7,-9.8 z m 22.7,12.4 c -1.4,0.3 -2.8,0.5 -4.3,0.5 -2.1,0 -4.3,-0.4 -6.3,-1 l 4.9,-8.9 c 0.5,-0.6 1.3,-0.8 2,-0.4 0.3,0.2 0.5,0.4 0.8,0.7 l 0,0 4.8,8.7 c -0.6,0.1 -1.2,0.2 -1.9,0.4 z m 12.2,-8.7 c -1.5,2.4 -3.6,4.5 -6,6 l -3.9,-9.4 c -0.2,-0.8 0.2,-1.6 0.9,-1.9 0.3,-0.1 0.6,-0.2 0.9,-0.2 l 10,1.7 c -0.5,1.4 -1.1,2.7 -1.9,3.8 z"
     id="path10351"
     style="fill:#ffffff" />
</svg>
